#!OML:ASF X:\für Bonn\!DataBase\2005_08_11_Bastian_Final\c3d\Bastian.ASF
:FULLY-SPECIFIED
:DEGREES
235
root -4.89079 17.3589 -1.50667 165.341 -27.6292 -174.098
lowerback 12.6634 -2.31634 2.27496
upperback 6.22298 -3.41252 -0.658141
thorax -0.728591 -1.90306 -1.51216
lowerneck -4.13701 -11.9881 -2.65125
upperneck -12.3307 -16.2848 18.0303
head -1.188 -9.10255 5.60021
rclavicle 3.01159e-014 1.19271e-014
rhumerus -424.363 19.4139 -468.244
rradius 44.716
rwrist -61.2151
rhand -30.5107 1073.15
rfingers 7.12502
rthumb -3.81068 -36.8006
lclavicle 3.01159e-014 1.19271e-014
lhumerus -70.4852 20.8156 32.8002
lradius 23.0178
lwrist -199.963
lhand -24.8293 10.9581
lfingers 7.12502
lthumb 1.67643 40.9313
rfemur -14.4478 14.0787 25.3393
rtibia 35.112
rfoot -2.82066 -2.56258
rtoes -6.4355
lfemur 19.4005 -3.82458 -13.9987
ltibia 26.2113
lfoot -14.0857 -8.92767
ltoes -18.8972
236
root -4.85638 17.341 -1.39329 165.521 -26.9319 -174.126
lowerback 12.8781 -2.22835 2.10853
upperback 6.38414 -3.3428 -0.650168
thorax -0.662841 -1.88323 -1.41538
lowerneck -4.52368 -11.839 -2.60186
upperneck -12.3578 -16.1198 18.0748
head -1.14934 -9.02746 5.58864
rclavicle 2.60408e-014 -2.06736e-014
rhumerus -423.68 19.1629 -467.282
rradius 45.5989
rwrist -61.1437
rhand -30.7237 1073.35
rfingers 7.12502
rthumb -4.01631 -36.5963
lclavicle 2.60408e-014 -2.06736e-014
lhumerus -70.1307 19.4147 35.2248
lradius 23.3067
lwrist -196.632
lhand -25.4105 10.877
lfingers 7.12502
lthumb 1.11506 40.8538
rfemur -15.1334 14.4395 25.247
rtibia 35.1747
rfoot -2.52999 -2.19123
rtoes -6.9849
lfemur 19.7241 -3.99678 -14.0666
ltibia 24.9427
lfoot -14.3089 -9.45369
ltoes -18.6831
237
root -4.82299 17.3251 -1.27127 165.726 -26.1386 -174.171
lowerback 13.145 -2.10597 1.98278
upperback 6.52309 -3.2225 -0.647988
thorax -0.648688 -1.83814 -1.3514
lowerneck -4.8951 -11.7059 -2.54585
upperneck -12.3998 -15.9753 18.095
head -1.11858 -8.96285 5.5706
rclavicle 4.37326e-014 -1.82882e-014
rhumerus -422.89 18.8388 -466.313
rradius 46.395
rwrist -60.9688
rhand -30.9822 1073.62
rfingers 7.12502
rthumb -4.26594 -36.3218
lclavicle 4.37326e-014 -1.82882e-014
lhumerus -70.0236 18.4894 36.848
lradius 23.5313
lwrist -193.712
lhand -26.2131 10.544
lfingers 7.12502
lthumb 0.339922 40.5235
rfemur -15.8471 14.777 25.1299
rtibia 35.1841
rfoot -2.2311 -1.63235
rtoes -7.6025
lfemur 19.9383 -4.02143 -14.169
ltibia 23.7857
lfoot -14.5092 -9.7777
ltoes -18.9494
238
root -4.78948 17.3088 -1.141 165.962 -25.343 -174.318
lowerback 13.4856 -1.97427 1.79894
upperback 6.66871 -3.10113 -0.687525
thorax -0.666716 -1.79534 -1.29576
lowerneck -5.26925 -11.5547 -2.55192
upperneck -12.4883 -15.8063 18.2048
head -1.08937 -8.89252 5.59066
rclavicle -6.11263e-014 1.11319e-014
rhumerus -421.949 18.4697 -465.35
rradius 47.0925
rwrist -60.6817
rhand -31.326 1073.89
rfingers 7.12502
rthumb -4.59792 -36.0394
lclavicle -6.11263e-014 1.11319e-014
lhumerus -70.022 17.9538 37.8955
lradius 23.6833
lwrist -191.177
lhand -27.1417 9.95805
lfingers 7.12502
lthumb -0.556907 39.9371
rfemur -16.5604 14.9506 24.8964
rtibia 35.142
rfoot -1.92402 -0.853965
rtoes -8.31957
lfemur 20.0395 -3.91247 -14.3744
ltibia 22.7546
lfoot -14.6516 -10.0039
ltoes -18.8212
239
root -4.75596 17.2922 -1.00498 166.208 -24.5636 -174.454
lowerback 13.8362 -1.84691 1.62251
upperback 6.81665 -2.98769 -0.719553
thorax -0.68779 -1.75745 -1.23575
lowerneck -5.60466 -11.4 -2.50622
upperneck -12.6648 -15.6296 18.254
head -1.10375 -8.82627 5.59492
rclavicle 6.26172e-015 8.74653e-015
rhumerus -420.916 18.0345 -464.359
rradius 47.6991
rwrist -60.2696
rhand -31.6823 1074.28
rfingers 7.12502
rthumb -4.94201 -35.6398
lclavicle 6.26172e-015 8.74653e-015
lhumerus -70.0517 17.7704 38.4836
lradius 23.7745
lwrist -189.133
lhand -28.0856 9.15022
lfingers 7.12502
lthumb -1.4686 39.1249
rfemur -17.2973 15.0031 24.6452
rtibia 35.0472
rfoot -1.61932 0.0105906
rtoes -9.14946
lfemur 20.0073 -3.62652 -14.5403
ltibia 21.8484
lfoot -14.7075 -10.0836
ltoes -18.1915
240
root -4.72268 17.2754 -0.867083 166.438 -23.7748 -174.568
lowerback 14.1982 -1.71795 1.49086
upperback 6.96181 -2.86938 -0.764708
thorax -0.72011 -1.71675 -1.21544
lowerneck -5.88133 -11.2486 -2.47207
upperneck -12.8832 -15.4555 18.3521
head -1.13409 -8.76894 5.62125
rclavicle 5.70512e-014 -3.89618e-014
rhumerus -419.718 17.4215 -463.343
rradius 48.08
rwrist -59.6363
rhand -31.9989 1074.74
rfingers 7.12502
rthumb -5.24764 -35.1788
lclavicle 5.70512e-014 -3.89618e-014
lhumerus -70.0672 17.8639 38.6531
lradius 23.7784
lwrist -187.717
lhand -29.069 8.25034
lfingers 7.12502
lthumb -2.41834 38.2164
rfemur -18.0153 14.9403 24.4124
rtibia 34.8926
rfoot -1.30633 0.943047
rtoes -9.95074
lfemur 19.8942 -3.18706 -14.647
ltibia 21.0824
lfoot -14.7933 -10.0972
ltoes -17.0696
241
root -4.69014 17.26 -0.728378 166.641 -23.0562 -174.679
lowerback 14.5822 -1.60545 1.3845
upperback 7.11086 -2.77299 -0.823314
thorax -0.761926 -1.6873 -1.22017
lowerneck -6.14425 -11.0924 -2.43146
upperneck -13.1351 -15.275 18.4456
head -1.17827 -8.71254 5.64885
rclavicle 7.5737e-014 6.36111e-015
rhumerus -418.479 16.6641 -462.316
rradius 48.398
rwrist -58.9251
rhand -32.2878 1075.28
rfingers 7.12502
rthumb -5.52663 -34.6259
lclavicle 7.5737e-014 6.36111e-015
lhumerus -69.9938 18.1095 38.6467
lradius 23.7431
lwrist -186.787
lhand -29.987 7.14907
lfingers 7.12502
lthumb -3.30492 37.1032
rfemur -18.6638 15.1279 24.1566
rtibia 34.6789
rfoot -1.01045 1.53604
rtoes -10.7093
lfemur 19.6909 -2.67544 -14.7378
ltibia 20.5059
lfoot -14.9598 -10.0534
ltoes -15.6611
242
root -4.65732 17.2483 -0.590434 166.845 -22.3397 -174.759
lowerback 14.9248 -1.50162 1.30229
upperback 7.26605 -2.68758 -0.888172
thorax -0.776295 -1.66298 -1.2459
lowerneck -6.43574 -10.9279 -2.34173
upperneck -13.3702 -15.0915 18.498
head -1.22138 -8.6545 5.65555
rclavicle 4.27387e-014 1.90833e-014
rhumerus -417.189 15.8516 -461.366
rradius 48.6573
rwrist -58.1217
rhand -32.5376 1075.88
rfingers 7.12502
rthumb -5.76781 -34.0259
lclavicle 4.27387e-014 1.90833e-014
lhumerus -69.9224 18.6545 38.2934
lradius 23.6374
lwrist -186.601
lhand -30.8299 6.08831
lfingers 7.12502
lthumb -4.11889 36.0282
rfemur -19.2628 15.5107 23.9372
rtibia 34.4168
rfoot -0.796396 1.85806
rtoes -11.662
lfemur 19.3622 -2.11439 -14.787
ltibia 20.1389
lfoot -15.1861 -9.97643
ltoes -13.7995
243
root -4.62663 17.2412 -0.451924 167.043 -21.6782 -174.854
lowerback 15.2946 -1.42759 1.23328
upperback 7.38921 -2.63713 -0.963031
thorax -0.840354 -1.65472 -1.28268
lowerneck -6.69279 -10.7689 -2.27914
upperneck -13.5633 -14.913 18.5399
head -1.2559 -8.5942 5.66302
rclavicle 9.70069e-014 -2.46493e-014
rhumerus -415.944 15.0459 -460.488
rradius 48.8759
rwrist -57.315
rhand -32.7791 1076.55
rfingers 7.12502
rthumb -6.00092 -33.341
lclavicle 9.70069e-014 -2.46493e-014
lhumerus -69.8701 19.3599 37.7569
lradius 23.4968
lwrist -186.965
lhand -31.6443 5.01805
lfingers 7.12502
lthumb -4.90531 34.9413
rfemur -19.7687 15.6045 23.7288
rtibia 34.1303
rfoot -0.834083 2.36409
rtoes -13.9032
lfemur 18.9076 -1.52058 -14.8405
ltibia 19.9954
lfoot -15.3589 -9.91052
ltoes -11.4491
